<mxfile host="app.diagrams.net" modified="2022-11-12T11:59:05.854Z" agent="5.0 (Macintosh; Intel Mac OS X 10_15_7) AppleWebKit/537.36 (KHTML, like Gecko) Chrome/107.0.0.0 Safari/537.36" etag="r_7GNkAc0abrXj2EALjp" version="20.5.2" type="github">
  <diagram id="jV5QDvQBJW7ew30wXjK5" name="Page-1">
    <mxGraphModel dx="2101" dy="568" grid="1" gridSize="10" guides="1" tooltips="1" connect="1" arrows="1" fold="1" page="1" pageScale="1" pageWidth="850" pageHeight="1100" math="0" shadow="0">
      <root>
        <mxCell id="0" />
        <mxCell id="1" parent="0" />
        <mxCell id="QAnGh3zYnI3MDuK6eiix-1" value="" style="edgeStyle=orthogonalEdgeStyle;rounded=1;orthogonalLoop=1;jettySize=auto;html=1;entryX=0;entryY=0.5;entryDx=0;entryDy=0;" edge="1" parent="1" source="QAnGh3zYnI3MDuK6eiix-2" target="QAnGh3zYnI3MDuK6eiix-5">
          <mxGeometry relative="1" as="geometry" />
        </mxCell>
        <mxCell id="QAnGh3zYnI3MDuK6eiix-2" value="噪声特征" style="rounded=1;whiteSpace=wrap;html=1;" vertex="1" parent="1">
          <mxGeometry x="-100" y="620" width="160" height="60" as="geometry" />
        </mxCell>
        <mxCell id="QAnGh3zYnI3MDuK6eiix-3" style="edgeStyle=orthogonalEdgeStyle;rounded=1;orthogonalLoop=1;jettySize=auto;html=1;entryX=0;entryY=0.5;entryDx=0;entryDy=0;" edge="1" parent="1" source="QAnGh3zYnI3MDuK6eiix-4" target="QAnGh3zYnI3MDuK6eiix-5">
          <mxGeometry relative="1" as="geometry" />
        </mxCell>
        <mxCell id="QAnGh3zYnI3MDuK6eiix-4" value="纹理特征" style="rounded=1;whiteSpace=wrap;html=1;" vertex="1" parent="1">
          <mxGeometry x="-100" y="781.22" width="160" height="58.78" as="geometry" />
        </mxCell>
        <mxCell id="QAnGh3zYnI3MDuK6eiix-5" value="合并为该类别语义块&lt;br&gt;的局部特征" style="rounded=1;whiteSpace=wrap;html=1;" vertex="1" parent="1">
          <mxGeometry x="150" y="705" width="160" height="60" as="geometry" />
        </mxCell>
        <mxCell id="QAnGh3zYnI3MDuK6eiix-6" value="其他类别语义块的局部特征" style="rounded=1;whiteSpace=wrap;html=1;" vertex="1" parent="1">
          <mxGeometry x="150" y="860" width="160" height="60" as="geometry" />
        </mxCell>
        <mxCell id="QAnGh3zYnI3MDuK6eiix-7" value="" style="endArrow=none;dashed=1;html=1;dashPattern=1 3;strokeWidth=2;rounded=0;" edge="1" parent="1">
          <mxGeometry width="50" height="50" relative="1" as="geometry">
            <mxPoint x="229.5" y="845.61" as="sourcePoint" />
            <mxPoint x="229.5" y="775.61" as="targetPoint" />
          </mxGeometry>
        </mxCell>
        <mxCell id="QAnGh3zYnI3MDuK6eiix-10" value="" style="edgeStyle=orthogonalEdgeStyle;rounded=0;orthogonalLoop=1;jettySize=auto;html=1;" edge="1" parent="1" source="QAnGh3zYnI3MDuK6eiix-8" target="QAnGh3zYnI3MDuK6eiix-9">
          <mxGeometry relative="1" as="geometry" />
        </mxCell>
        <mxCell id="QAnGh3zYnI3MDuK6eiix-8" value="" style="shape=curlyBracket;whiteSpace=wrap;html=1;rounded=1;flipH=1;labelPosition=right;verticalLabelPosition=middle;align=left;verticalAlign=middle;" vertex="1" parent="1">
          <mxGeometry x="320" y="705" width="20" height="215" as="geometry" />
        </mxCell>
        <mxCell id="QAnGh3zYnI3MDuK6eiix-12" value="" style="edgeStyle=orthogonalEdgeStyle;rounded=1;orthogonalLoop=1;jettySize=auto;html=1;" edge="1" parent="1" source="QAnGh3zYnI3MDuK6eiix-9" target="QAnGh3zYnI3MDuK6eiix-11">
          <mxGeometry relative="1" as="geometry" />
        </mxCell>
        <mxCell id="QAnGh3zYnI3MDuK6eiix-9" value="合并为整幅图像的&lt;br&gt;源取证分类特征" style="rounded=1;whiteSpace=wrap;html=1;" vertex="1" parent="1">
          <mxGeometry x="390" y="782.5" width="160" height="60" as="geometry" />
        </mxCell>
        <mxCell id="QAnGh3zYnI3MDuK6eiix-14" value="" style="edgeStyle=orthogonalEdgeStyle;rounded=1;orthogonalLoop=1;jettySize=auto;html=1;" edge="1" parent="1" source="QAnGh3zYnI3MDuK6eiix-11" target="QAnGh3zYnI3MDuK6eiix-13">
          <mxGeometry relative="1" as="geometry" />
        </mxCell>
        <mxCell id="QAnGh3zYnI3MDuK6eiix-11" value="合适的预训练完成的&lt;br&gt;分类模型" style="rounded=1;whiteSpace=wrap;html=1;" vertex="1" parent="1">
          <mxGeometry x="620" y="782.5" width="160" height="60" as="geometry" />
        </mxCell>
        <mxCell id="QAnGh3zYnI3MDuK6eiix-13" value="源取证分类结果" style="rounded=1;whiteSpace=wrap;html=1;" vertex="1" parent="1">
          <mxGeometry x="850" y="782.5" width="160" height="60" as="geometry" />
        </mxCell>
      </root>
    </mxGraphModel>
  </diagram>
</mxfile>
